<mxfile host="app.diagrams.net" agent="Mozilla/5.0 (Windows NT 10.0; Win64; x64) AppleWebKit/537.36 (KHTML, like Gecko) Chrome/129.0.0.0 Safari/537.36" version="24.7.16" pages="2">
  <diagram name="Page-1" id="AzX5AvPN5hzcCzk6N25i">
    <mxGraphModel grid="1" page="1" gridSize="10" guides="1" tooltips="1" connect="1" arrows="1" fold="1" pageScale="1" pageWidth="850" pageHeight="1100" math="0" shadow="0">
      <root>
        <mxCell id="0" />
        <mxCell id="1" parent="0" />
        <mxCell id="HLNscKULhkaK0ZpzKJ-t-14" value="" style="edgeStyle=orthogonalEdgeStyle;rounded=0;orthogonalLoop=1;jettySize=auto;html=1;fillColor=#e1d5e7;strokeColor=#9673a6;" edge="1" parent="1" source="HLNscKULhkaK0ZpzKJ-t-2">
          <mxGeometry relative="1" as="geometry">
            <mxPoint x="260" y="620" as="targetPoint" />
          </mxGeometry>
        </mxCell>
        <mxCell id="HLNscKULhkaK0ZpzKJ-t-2" value="Kasir&lt;div&gt;&lt;br&gt;&lt;/div&gt;" style="rounded=0;whiteSpace=wrap;html=1;" vertex="1" parent="1">
          <mxGeometry x="200" y="70" width="120" height="60" as="geometry" />
        </mxCell>
        <mxCell id="HLNscKULhkaK0ZpzKJ-t-16" value="" style="edgeStyle=orthogonalEdgeStyle;rounded=0;orthogonalLoop=1;jettySize=auto;html=1;fillColor=#e1d5e7;strokeColor=#9673a6;" edge="1" parent="1" source="HLNscKULhkaK0ZpzKJ-t-3">
          <mxGeometry relative="1" as="geometry">
            <mxPoint x="425" y="620" as="targetPoint" />
          </mxGeometry>
        </mxCell>
        <mxCell id="HLNscKULhkaK0ZpzKJ-t-3" value="Sistem&lt;div&gt;&lt;br&gt;&lt;/div&gt;" style="rounded=0;whiteSpace=wrap;html=1;" vertex="1" parent="1">
          <mxGeometry x="365" y="70" width="120" height="60" as="geometry" />
        </mxCell>
        <mxCell id="HLNscKULhkaK0ZpzKJ-t-18" value="" style="edgeStyle=orthogonalEdgeStyle;rounded=0;orthogonalLoop=1;jettySize=auto;html=1;fillColor=#e1d5e7;strokeColor=#9673a6;" edge="1" parent="1" source="HLNscKULhkaK0ZpzKJ-t-4">
          <mxGeometry relative="1" as="geometry">
            <mxPoint x="590" y="630" as="targetPoint" />
          </mxGeometry>
        </mxCell>
        <mxCell id="HLNscKULhkaK0ZpzKJ-t-4" value="Inventaris" style="rounded=0;whiteSpace=wrap;html=1;" vertex="1" parent="1">
          <mxGeometry x="530" y="70" width="120" height="60" as="geometry" />
        </mxCell>
        <mxCell id="HLNscKULhkaK0ZpzKJ-t-20" value="" style="edgeStyle=orthogonalEdgeStyle;rounded=0;orthogonalLoop=1;jettySize=auto;html=1;fillColor=#e1d5e7;strokeColor=#9673a6;" edge="1" parent="1" source="HLNscKULhkaK0ZpzKJ-t-5">
          <mxGeometry relative="1" as="geometry">
            <mxPoint x="760" y="610" as="targetPoint" />
          </mxGeometry>
        </mxCell>
        <mxCell id="HLNscKULhkaK0ZpzKJ-t-5" value="Pembayaran" style="rounded=0;whiteSpace=wrap;html=1;" vertex="1" parent="1">
          <mxGeometry x="700" y="70" width="120" height="60" as="geometry" />
        </mxCell>
        <mxCell id="HLNscKULhkaK0ZpzKJ-t-12" value="" style="edgeStyle=orthogonalEdgeStyle;rounded=0;orthogonalLoop=1;jettySize=auto;html=1;fillColor=#e1d5e7;strokeColor=#9673a6;" edge="1" parent="1" source="HLNscKULhkaK0ZpzKJ-t-1">
          <mxGeometry relative="1" as="geometry">
            <mxPoint x="100" y="620" as="targetPoint" />
          </mxGeometry>
        </mxCell>
        <mxCell id="HLNscKULhkaK0ZpzKJ-t-1" value="Pelanggan" style="rounded=0;whiteSpace=wrap;html=1;" vertex="1" parent="1">
          <mxGeometry x="40" y="70" width="120" height="60" as="geometry" />
        </mxCell>
        <mxCell id="HLNscKULhkaK0ZpzKJ-t-6" value="Pelanggan" style="whiteSpace=wrap;html=1;" vertex="1" parent="1">
          <mxGeometry x="40" y="590" width="120" height="60" as="geometry" />
        </mxCell>
        <mxCell id="HLNscKULhkaK0ZpzKJ-t-7" value="Kasir" style="whiteSpace=wrap;html=1;" vertex="1" parent="1">
          <mxGeometry x="190" y="590" width="120" height="60" as="geometry" />
        </mxCell>
        <mxCell id="HLNscKULhkaK0ZpzKJ-t-8" value="Sistem" style="whiteSpace=wrap;html=1;" vertex="1" parent="1">
          <mxGeometry x="350" y="590" width="120" height="60" as="geometry" />
        </mxCell>
        <mxCell id="HLNscKULhkaK0ZpzKJ-t-9" value="Inventaris" style="whiteSpace=wrap;html=1;" vertex="1" parent="1">
          <mxGeometry x="530" y="590" width="120" height="60" as="geometry" />
        </mxCell>
        <mxCell id="HLNscKULhkaK0ZpzKJ-t-10" value="Pembayaran" style="whiteSpace=wrap;html=1;" vertex="1" parent="1">
          <mxGeometry x="700" y="590" width="120" height="60" as="geometry" />
        </mxCell>
        <mxCell id="HLNscKULhkaK0ZpzKJ-t-22" value="" style="endArrow=classic;html=1;rounded=0;" edge="1" parent="1">
          <mxGeometry width="50" height="50" relative="1" as="geometry">
            <mxPoint x="105" y="200" as="sourcePoint" />
            <mxPoint x="265" y="200" as="targetPoint" />
            <Array as="points" />
          </mxGeometry>
        </mxCell>
        <mxCell id="HLNscKULhkaK0ZpzKJ-t-23" value="Pemilihan barang" style="text;html=1;align=center;verticalAlign=middle;resizable=0;points=[];autosize=1;strokeColor=none;fillColor=none;" vertex="1" parent="1">
          <mxGeometry x="120" y="170" width="120" height="30" as="geometry" />
        </mxCell>
        <mxCell id="HLNscKULhkaK0ZpzKJ-t-24" value="" style="endArrow=none;dashed=1;html=1;dashPattern=1 3;strokeWidth=2;rounded=0;" edge="1" parent="1">
          <mxGeometry width="50" height="50" relative="1" as="geometry">
            <mxPoint x="105" y="409" as="sourcePoint" />
            <mxPoint x="265" y="409" as="targetPoint" />
          </mxGeometry>
        </mxCell>
        <mxCell id="HLNscKULhkaK0ZpzKJ-t-25" value="informasikan total harga" style="text;html=1;align=center;verticalAlign=middle;resizable=0;points=[];autosize=1;strokeColor=none;fillColor=none;" vertex="1" parent="1">
          <mxGeometry x="110" y="380" width="150" height="30" as="geometry" />
        </mxCell>
        <mxCell id="HLNscKULhkaK0ZpzKJ-t-26" value="" style="endArrow=classic;html=1;rounded=0;" edge="1" parent="1">
          <mxGeometry width="50" height="50" relative="1" as="geometry">
            <mxPoint x="100" y="448" as="sourcePoint" />
            <mxPoint x="260" y="448" as="targetPoint" />
          </mxGeometry>
        </mxCell>
        <mxCell id="HLNscKULhkaK0ZpzKJ-t-27" value="Membayar" style="text;html=1;align=center;verticalAlign=middle;resizable=0;points=[];autosize=1;strokeColor=none;fillColor=none;" vertex="1" parent="1">
          <mxGeometry x="140" y="418" width="80" height="30" as="geometry" />
        </mxCell>
        <mxCell id="HLNscKULhkaK0ZpzKJ-t-28" value="" style="endArrow=none;dashed=1;html=1;dashPattern=1 3;strokeWidth=2;rounded=0;" edge="1" parent="1" source="HLNscKULhkaK0ZpzKJ-t-29">
          <mxGeometry width="50" height="50" relative="1" as="geometry">
            <mxPoint x="110" y="560" as="sourcePoint" />
            <mxPoint x="260" y="560" as="targetPoint" />
          </mxGeometry>
        </mxCell>
        <mxCell id="HLNscKULhkaK0ZpzKJ-t-31" value="" style="endArrow=classic;html=1;rounded=0;" edge="1" parent="1">
          <mxGeometry width="50" height="50" relative="1" as="geometry">
            <mxPoint x="260" y="250" as="sourcePoint" />
            <mxPoint x="420" y="250" as="targetPoint" />
          </mxGeometry>
        </mxCell>
        <mxCell id="HLNscKULhkaK0ZpzKJ-t-32" value="Pemindaian barang" style="text;html=1;align=center;verticalAlign=middle;resizable=0;points=[];autosize=1;strokeColor=none;fillColor=none;" vertex="1" parent="1">
          <mxGeometry x="275" y="220" width="130" height="30" as="geometry" />
        </mxCell>
        <mxCell id="HLNscKULhkaK0ZpzKJ-t-33" value="" style="endArrow=classic;html=1;rounded=0;" edge="1" parent="1">
          <mxGeometry width="50" height="50" relative="1" as="geometry">
            <mxPoint x="425" y="360" as="sourcePoint" />
            <mxPoint x="270" y="360" as="targetPoint" />
          </mxGeometry>
        </mxCell>
        <mxCell id="HLNscKULhkaK0ZpzKJ-t-36" value="Total harga" style="text;html=1;align=center;verticalAlign=middle;resizable=0;points=[];autosize=1;strokeColor=none;fillColor=none;" vertex="1" parent="1">
          <mxGeometry x="300" y="318" width="80" height="30" as="geometry" />
        </mxCell>
        <mxCell id="HLNscKULhkaK0ZpzKJ-t-37" value="" style="endArrow=classic;html=1;rounded=0;" edge="1" parent="1">
          <mxGeometry width="50" height="50" relative="1" as="geometry">
            <mxPoint x="260" y="478" as="sourcePoint" />
            <mxPoint x="420" y="478" as="targetPoint" />
          </mxGeometry>
        </mxCell>
        <mxCell id="HLNscKULhkaK0ZpzKJ-t-38" value="Input data pembayaran" style="text;html=1;align=center;verticalAlign=middle;resizable=0;points=[];autosize=1;strokeColor=none;fillColor=none;" vertex="1" parent="1">
          <mxGeometry x="275" y="448" width="150" height="30" as="geometry" />
        </mxCell>
        <mxCell id="HLNscKULhkaK0ZpzKJ-t-41" value="" style="endArrow=none;dashed=1;html=1;dashPattern=1 3;strokeWidth=2;rounded=0;" edge="1" parent="1">
          <mxGeometry width="50" height="50" relative="1" as="geometry">
            <mxPoint x="435" y="549" as="sourcePoint" />
            <mxPoint x="275" y="549" as="targetPoint" />
          </mxGeometry>
        </mxCell>
        <mxCell id="HLNscKULhkaK0ZpzKJ-t-42" value="Konfirmasi pembayaran selesai" style="text;html=1;align=center;verticalAlign=middle;resizable=0;points=[];autosize=1;strokeColor=none;fillColor=none;fontSize=10;" vertex="1" parent="1">
          <mxGeometry x="270" y="520" width="160" height="30" as="geometry" />
        </mxCell>
        <mxCell id="HLNscKULhkaK0ZpzKJ-t-43" value="" style="endArrow=classic;html=1;rounded=0;" edge="1" parent="1">
          <mxGeometry width="50" height="50" relative="1" as="geometry">
            <mxPoint x="425" y="280" as="sourcePoint" />
            <mxPoint x="590" y="280" as="targetPoint" />
          </mxGeometry>
        </mxCell>
        <mxCell id="HLNscKULhkaK0ZpzKJ-t-44" value="Cek ketersediaan barang" style="text;html=1;align=center;verticalAlign=middle;resizable=0;points=[];autosize=1;strokeColor=none;fillColor=none;" vertex="1" parent="1">
          <mxGeometry x="430" y="248" width="160" height="30" as="geometry" />
        </mxCell>
        <mxCell id="HLNscKULhkaK0ZpzKJ-t-45" value="" style="endArrow=none;dashed=1;html=1;dashPattern=1 3;strokeWidth=2;rounded=0;" edge="1" parent="1">
          <mxGeometry width="50" height="50" relative="1" as="geometry">
            <mxPoint x="430" y="320" as="sourcePoint" />
            <mxPoint x="590" y="320" as="targetPoint" />
          </mxGeometry>
        </mxCell>
        <mxCell id="HLNscKULhkaK0ZpzKJ-t-46" value="Barang tersedia" style="text;html=1;align=center;verticalAlign=middle;resizable=0;points=[];autosize=1;strokeColor=none;fillColor=none;" vertex="1" parent="1">
          <mxGeometry x="445" y="288" width="110" height="30" as="geometry" />
        </mxCell>
        <mxCell id="HLNscKULhkaK0ZpzKJ-t-48" value="" style="endArrow=classic;html=1;rounded=0;" edge="1" parent="1">
          <mxGeometry width="50" height="50" relative="1" as="geometry">
            <mxPoint x="425" y="500" as="sourcePoint" />
            <mxPoint x="760" y="500" as="targetPoint" />
          </mxGeometry>
        </mxCell>
        <mxCell id="HLNscKULhkaK0ZpzKJ-t-49" value="Proses pembayaran" style="text;html=1;align=center;verticalAlign=middle;resizable=0;points=[];autosize=1;strokeColor=none;fillColor=none;" vertex="1" parent="1">
          <mxGeometry x="525" y="470" width="130" height="30" as="geometry" />
        </mxCell>
        <mxCell id="HLNscKULhkaK0ZpzKJ-t-50" value="" style="endArrow=none;dashed=1;html=1;dashPattern=1 3;strokeWidth=2;rounded=0;" edge="1" parent="1" target="HLNscKULhkaK0ZpzKJ-t-29">
          <mxGeometry width="50" height="50" relative="1" as="geometry">
            <mxPoint x="110" y="560" as="sourcePoint" />
            <mxPoint x="260" y="560" as="targetPoint" />
          </mxGeometry>
        </mxCell>
        <mxCell id="HLNscKULhkaK0ZpzKJ-t-29" value="Berikan bukti pembayaran" style="text;html=1;align=center;verticalAlign=middle;resizable=0;points=[];autosize=1;strokeColor=none;fillColor=none;" vertex="1" parent="1">
          <mxGeometry x="105" y="535" width="160" height="30" as="geometry" />
        </mxCell>
        <mxCell id="HLNscKULhkaK0ZpzKJ-t-54" value="" style="endArrow=none;dashed=1;html=1;dashPattern=1 3;strokeWidth=2;rounded=0;exitX=1;exitY=0.167;exitDx=0;exitDy=0;exitPerimeter=0;" edge="1" parent="1">
          <mxGeometry width="50" height="50" relative="1" as="geometry">
            <mxPoint x="430" y="530.01" as="sourcePoint" />
            <mxPoint x="760" y="530" as="targetPoint" />
          </mxGeometry>
        </mxCell>
        <mxCell id="HLNscKULhkaK0ZpzKJ-t-55" value="Pembayaran berhasil" style="edgeLabel;html=1;align=center;verticalAlign=middle;resizable=0;points=[];" connectable="0" vertex="1" parent="HLNscKULhkaK0ZpzKJ-t-54">
          <mxGeometry x="-0.0061" y="1" relative="1" as="geometry">
            <mxPoint x="-4" y="-9" as="offset" />
          </mxGeometry>
        </mxCell>
      </root>
    </mxGraphModel>
  </diagram>
  <diagram id="5q36BVxQVovmPfTbMMGV" name="Page-2">
    <mxGraphModel grid="1" page="1" gridSize="10" guides="1" tooltips="1" connect="1" arrows="1" fold="1" pageScale="1" pageWidth="850" pageHeight="1100" math="0" shadow="0">
      <root>
        <mxCell id="0" />
        <mxCell id="1" parent="0" />
        <mxCell id="WlOory8ctdRQyoiYHGZU-1" value="Pelanggan" style="shape=umlActor;verticalLabelPosition=bottom;verticalAlign=top;html=1;outlineConnect=0;" vertex="1" parent="1">
          <mxGeometry x="40" y="70" width="30" height="60" as="geometry" />
        </mxCell>
        <mxCell id="WlOory8ctdRQyoiYHGZU-2" value="Kasir" style="shape=umlActor;verticalLabelPosition=bottom;verticalAlign=top;html=1;outlineConnect=0;" vertex="1" parent="1">
          <mxGeometry x="40" y="330" width="30" height="60" as="geometry" />
        </mxCell>
        <mxCell id="WlOory8ctdRQyoiYHGZU-3" value="Manager" style="shape=umlActor;verticalLabelPosition=bottom;verticalAlign=top;html=1;outlineConnect=0;" vertex="1" parent="1">
          <mxGeometry x="40" y="560" width="30" height="60" as="geometry" />
        </mxCell>
        <mxCell id="WlOory8ctdRQyoiYHGZU-4" value="Memilih produk" style="ellipse;whiteSpace=wrap;html=1;" vertex="1" parent="1">
          <mxGeometry x="240" y="40" width="120" height="80" as="geometry" />
        </mxCell>
        <mxCell id="WlOory8ctdRQyoiYHGZU-5" value="Melakukan pembayaran" style="ellipse;whiteSpace=wrap;html=1;" vertex="1" parent="1">
          <mxGeometry x="240" y="140" width="120" height="80" as="geometry" />
        </mxCell>
        <mxCell id="WlOory8ctdRQyoiYHGZU-6" value="Memproses&lt;div&gt;&amp;nbsp;transaksi&lt;/div&gt;" style="ellipse;whiteSpace=wrap;html=1;" vertex="1" parent="1">
          <mxGeometry x="240" y="280" width="120" height="80" as="geometry" />
        </mxCell>
        <mxCell id="WlOory8ctdRQyoiYHGZU-7" value="Memeriksa ketersediaan produk" style="ellipse;whiteSpace=wrap;html=1;" vertex="1" parent="1">
          <mxGeometry x="240" y="370" width="120" height="80" as="geometry" />
        </mxCell>
        <mxCell id="WlOory8ctdRQyoiYHGZU-8" value="Mengelola&lt;div&gt;&amp;nbsp;inventoris&lt;/div&gt;" style="ellipse;whiteSpace=wrap;html=1;" vertex="1" parent="1">
          <mxGeometry x="240" y="520" width="120" height="80" as="geometry" />
        </mxCell>
        <mxCell id="WlOory8ctdRQyoiYHGZU-9" value="Melihat&amp;nbsp;&lt;div&gt;laporan penjualan&lt;/div&gt;" style="ellipse;whiteSpace=wrap;html=1;" vertex="1" parent="1">
          <mxGeometry x="240" y="620" width="120" height="80" as="geometry" />
        </mxCell>
        <mxCell id="WlOory8ctdRQyoiYHGZU-10" value="" style="endArrow=none;html=1;rounded=0;entryX=0.058;entryY=0.463;entryDx=0;entryDy=0;entryPerimeter=0;" edge="1" parent="1" target="WlOory8ctdRQyoiYHGZU-4">
          <mxGeometry width="50" height="50" relative="1" as="geometry">
            <mxPoint x="90" y="105" as="sourcePoint" />
            <mxPoint x="140" y="55" as="targetPoint" />
          </mxGeometry>
        </mxCell>
        <mxCell id="YI4cpvmHOl9lcFQVLreu-1" value="" style="endArrow=none;html=1;rounded=0;entryX=0.042;entryY=0.588;entryDx=0;entryDy=0;entryPerimeter=0;" edge="1" parent="1" target="WlOory8ctdRQyoiYHGZU-5">
          <mxGeometry width="50" height="50" relative="1" as="geometry">
            <mxPoint x="90" y="105" as="sourcePoint" />
            <mxPoint x="140" y="55" as="targetPoint" />
          </mxGeometry>
        </mxCell>
        <mxCell id="YI4cpvmHOl9lcFQVLreu-2" value="" style="endArrow=none;html=1;rounded=0;entryX=0;entryY=0.5;entryDx=0;entryDy=0;" edge="1" parent="1" target="WlOory8ctdRQyoiYHGZU-6">
          <mxGeometry width="50" height="50" relative="1" as="geometry">
            <mxPoint x="80" y="360" as="sourcePoint" />
            <mxPoint x="130" y="310" as="targetPoint" />
          </mxGeometry>
        </mxCell>
        <mxCell id="YI4cpvmHOl9lcFQVLreu-3" value="" style="endArrow=none;html=1;rounded=0;entryX=0;entryY=0.5;entryDx=0;entryDy=0;" edge="1" parent="1" target="WlOory8ctdRQyoiYHGZU-7">
          <mxGeometry width="50" height="50" relative="1" as="geometry">
            <mxPoint x="80" y="360" as="sourcePoint" />
            <mxPoint x="130" y="310" as="targetPoint" />
          </mxGeometry>
        </mxCell>
        <mxCell id="YI4cpvmHOl9lcFQVLreu-4" value="" style="endArrow=none;html=1;rounded=0;entryX=0;entryY=0.5;entryDx=0;entryDy=0;" edge="1" parent="1" target="WlOory8ctdRQyoiYHGZU-8">
          <mxGeometry width="50" height="50" relative="1" as="geometry">
            <mxPoint x="90" y="600" as="sourcePoint" />
            <mxPoint x="140" y="550" as="targetPoint" />
          </mxGeometry>
        </mxCell>
        <mxCell id="YI4cpvmHOl9lcFQVLreu-5" value="" style="endArrow=none;html=1;rounded=0;entryX=0;entryY=0.375;entryDx=0;entryDy=0;entryPerimeter=0;" edge="1" parent="1" target="WlOory8ctdRQyoiYHGZU-9">
          <mxGeometry width="50" height="50" relative="1" as="geometry">
            <mxPoint x="90" y="600" as="sourcePoint" />
            <mxPoint x="140" y="550" as="targetPoint" />
          </mxGeometry>
        </mxCell>
      </root>
    </mxGraphModel>
  </diagram>
</mxfile>
